<svg xmlns="http://www.w3.org/2000/svg" width="180" height="60" viewBox="0 0 180 60" role="img" aria-labelledby="title">
  <title>WIRED</title>
  <rect width="180" height="60" fill="#000" rx="8" />
  <g>
    <g transform="translate(8 12)">
      <rect width="28" height="36" fill="#fff" rx="2" />
      <path
        d="M4 6 L8 30 L14 16 L20 30 L24 6"
        fill="none"
        stroke="#000"
        stroke-width="4"
        stroke-linecap="round"
        stroke-linejoin="round"
      />
    </g>
    <g transform="translate(42 12)">
      <rect width="28" height="36" fill="#fff" rx="2" />
      <rect x="6" y="4" width="16" height="4" fill="#000" />
      <rect x="10" y="8" width="8" height="20" fill="#000" />
      <rect x="6" y="30" width="16" height="4" fill="#000" />
    </g>
    <g transform="translate(76 12)">
      <rect width="28" height="36" fill="#fff" rx="2" />
      <path
        d="M6 6h10c6.5 0 12 4.5 12 11s-5.5 11-12 11h-4v13H6Z"
        fill="#000"
      />
      <path d="M14 24l12 14h-8L8 24Z" fill="#000" />
    </g>
    <g transform="translate(110 12)">
      <rect width="28" height="36" fill="#fff" rx="2" />
      <path
        d="M6 6h18v4H12v8h10v4H12v8h12v4H6Z"
        fill="#000"
      />
    </g>
    <g transform="translate(144 12)">
      <rect width="28" height="36" fill="#fff" rx="2" />
      <path
        d="M6 6h10c9 0 12 6 12 12v12c0 6-3 12-12 12H6Z"
        fill="#000"
      />
      <rect x="10" y="10" width="8" height="20" fill="#fff" rx="4" />
    </g>
  </g>
</svg>
